<svg id="815263af-a21e-49db-91da-60778ca8c83c" data-name="Layer 1" xmlns="http://www.w3.org/2000/svg" viewBox="0 0 514.96 329.77"><path d="M0.71,330.48V0.71h515V330.48H0.71Zm1.38-1.91,0.59,1.15a27.36,27.36,0,0,0,3.56-1.64c6.83-4.37,13.56-8.9,20.43-13.21C33.16,310.82,39.8,307,46.33,303Q64,292.27,81.62,281.43c12-7.38,24-14.81,36.13-22.12,10.21-6.18,20.54-12.17,30.77-18.31,3.73-2.23,7.36-4.62,11-7a5.22,5.22,0,0,0,1.09-1.74l-0.64-.64-18,11V174.74h21.85v44.63c10.72,7.07,21.1,14,31.54,20.79q16.85,11,33.78,21.86c8.54,5.47,17.11,10.88,25.77,16.15a4.65,4.65,0,0,0,3.95,0c4.41-2.48,8.62-5.3,12.94-7.94,12.34-7.57,24.67-15.16,37.06-22.66,10.41-6.3,20.93-12.43,31.32-18.77a4.57,4.57,0,0,0,1.93-3.27c0-16-.09-32-0.17-48a10.13,10.13,0,0,1,.32-1.64h89.27l0.22-1.4a20.62,20.62,0,0,0-3.51-.6q-41.13-.05-82.26,0h-4.07c0-16.29,0-32.17.07-48.05a3.53,3.53,0,0,1,1.57-2.37c4.13-2.7,8.35-5.27,12.56-7.84q18.11-11.08,36.24-22.13c12.05-7.38,24.07-14.81,36.13-22.18s24.14-14.71,36.23-22c6.45-3.91,13-7.74,19.43-11.61q13.19-7.89,26.37-15.8a19,19,0,0,0,2.32-1.95L512.17,19a26.25,26.25,0,0,0-2.69,1.27c-5.11,3.13-10.16,6.36-15.28,9.46-12.5,7.57-25,15.06-37.54,22.63-5.53,3.35-11,6.8-16.52,10.17Q429.6,69,419,75.38c-5,3.06-10.05,6.14-15.1,9.18-9.5,5.72-19,11.37-28.51,17.14a4.49,4.49,0,0,1-5.47,0q-15.29-9.89-30.75-19.5c-9.73-6.06-19.56-12-29.31-18-1.68-1-3.13-2.43-4.81-3.47-2.11-1.3-4.35-2.39-6.54-3.56L297.9,58.3c1.91,1.44,3.73,3,5.74,4.29q17.42,11.1,34.92,22.08c9.21,5.77,18.48,11.43,27.73,17.13,1.27,0.78,2.55,1.54,4.35,2.63-8,5.07-15.5,9.93-23.11,14.56-9.68,5.89-19.48,11.59-29.22,17.37a16.25,16.25,0,0,0-2.7,1.69,10.87,10.87,0,0,0-1.51,2.25l0.73,0.72,25.41-15.56V173.9h-43.1l-0.26,1.33a16,16,0,0,0,3.2.67c10.56,0.05,21.13,0,31.69,0h8.69v4.26c0,13.89-.13,27.78.09,41.66,0.06,3.61-1.39,5.56-4.27,7.3-11.71,7-23.31,14.24-35,21.32-14,8.51-28.09,16.92-42.08,25.47a4.11,4.11,0,0,1-5.12-.07q-12.4-8.35-24.95-16.49-17.3-11.24-34.68-22.35c-9-5.78-18.17-11.41-27.14-17.3a5.44,5.44,0,0,1-2-3.92c-0.15-12.82-.09-25.64-0.08-38.46,0-.9.16-1.8,0.27-2.92h53.56c1-3.29-1.25-2.76-2.9-2.76H141.74v-4.38c0-20.77,0-41.55-.07-62.32a5.27,5.27,0,0,0-1.57-3.81c-7-5-14.16-9.75-21.23-14.64-1.61-1.12-3-2.53-4.64-3.64a5.1,5.1,0,0,0-2.18-.25,3.73,3.73,0,0,0,1.5,2.39c8,5.46,15.94,11,24,16.29a5.35,5.35,0,0,1,2.79,5.13c-0.1,20.53-.06,41.07-0.06,61.61,0,1.14-.1,2.28-0.17,3.61H87.89c-2.91,0-2.91,0-2.76,2.92h55.19c0,22.68,0,45-.06,67.27a3.59,3.59,0,0,1-1.43,2.48c-3.28,2.28-6.64,4.46-10,6.55Q110.72,262,92.62,273c-6.35,3.88-12.68,7.78-19,11.66-12.46,7.61-24.9,15.27-37.41,22.81-9.81,5.91-19.74,11.63-29.56,17.52A41.64,41.64,0,0,0,2.09,328.58ZM261.81,34.3l14.57-15.94L261.73,1.86c-4.64,4.87-9.22,9.6-13.65,14.46a2.79,2.79,0,0,0,0,2.71C252.45,24.07,257,29,261.81,34.3Z" transform="translate(-0.71 -0.71)" style="fill:#fff"/><path d="M2.09,328.58a41.64,41.64,0,0,1,4.54-3.63c9.82-5.89,19.75-11.61,29.56-17.52,12.51-7.54,24.94-15.19,37.41-22.81,6.35-3.88,12.68-7.78,19-11.66q18.08-11,36.16-22.08c3.41-2.09,6.76-4.26,10-6.55a3.59,3.59,0,0,0,1.43-2.48c0.08-22.3.06-44.59,0.06-67.27H85.12c-0.15-2.9-.15-2.92,2.76-2.92h52.25c0.06-1.33.17-2.47,0.17-3.61,0-20.54,0-41.07.06-61.61a5.35,5.35,0,0,0-2.79-5.13c-8.09-5.31-16-10.83-24-16.29a3.73,3.73,0,0,1-1.5-2.39,5.1,5.1,0,0,1,2.18.25c1.62,1.1,3,2.52,4.64,3.64,7.07,4.89,14.24,9.63,21.23,14.64a5.27,5.27,0,0,1,1.57,3.81c0.1,20.77.07,41.55,0.07,62.32v4.38h74.45c1.65,0,3.85-.53,2.9,2.76H165.52c-0.11,1.12-.27,2-0.27,2.92,0,12.82-.07,25.64.08,38.46a5.44,5.44,0,0,0,2,3.92c9,5.88,18.1,11.52,27.14,17.3q17.38,11.12,34.68,22.35,12.54,8.15,24.95,16.49a4.11,4.11,0,0,0,5.12.07c14-8.55,28.07-17,42.08-25.47,11.67-7.09,23.27-14.3,35-21.32,2.89-1.73,4.33-3.68,4.27-7.3-0.22-13.88-.09-27.77-0.09-41.66v-4.26h-8.69c-10.56,0-21.13,0-31.69,0a16,16,0,0,1-3.2-.67l0.26-1.33h43.1V125.46L314.82,141l-0.73-.72a10.87,10.87,0,0,1,1.51-2.25,16.25,16.25,0,0,1,2.7-1.69c9.74-5.78,19.54-11.48,29.22-17.37,7.61-4.63,15.09-9.5,23.11-14.56-1.8-1.09-3.08-1.85-4.35-2.63-9.25-5.7-18.52-11.36-27.73-17.13Q321,73.7,303.64,62.58c-2-1.28-3.83-2.85-5.74-4.29l0.62-1.17c2.19,1.18,4.43,2.27,6.54,3.56,1.68,1,3.14,2.43,4.81,3.47,9.75,6,19.58,11.94,29.31,18q15.45,9.63,30.75,19.5a4.49,4.49,0,0,0,5.47,0c9.47-5.77,19-11.43,28.51-17.14,5-3,10.07-6.12,15.1-9.18Q429.59,69,440.15,62.54c5.52-3.37,11-6.83,16.52-10.17,12.5-7.56,25-15.06,37.54-22.63,5.12-3.1,10.17-6.32,15.28-9.46A26.25,26.25,0,0,1,512.17,19l0.62,0.81a19,19,0,0,1-2.32,1.95q-13.16,7.94-26.37,15.8c-6.48,3.87-13,7.71-19.43,11.61q-18.14,11-36.23,22C416.39,78.59,404.37,86,392.32,93.4s-24.16,14.74-36.24,22.13c-4.21,2.58-8.42,5.15-12.56,7.84a3.53,3.53,0,0,0-1.57,2.37c-0.09,15.88-.07,31.76-0.07,48.05H346q41.13,0,82.26,0a20.62,20.62,0,0,1,3.51.6l-0.22,1.4H342.22a10.13,10.13,0,0,0-.32,1.64c0.08,16,.21,32,0.17,48a4.57,4.57,0,0,1-1.93,3.27c-10.39,6.34-20.9,12.47-31.32,18.77-12.39,7.49-24.72,15.09-37.06,22.66-4.32,2.65-8.53,5.46-12.94,7.94a4.65,4.65,0,0,1-3.95,0c-8.66-5.26-17.23-10.68-25.77-16.15q-16.94-10.85-33.78-21.86c-10.44-6.81-20.82-13.72-31.54-20.79V174.74H141.93v67.88l18-11,0.64,0.64A5.22,5.22,0,0,1,159.5,234c-3.62,2.4-7.26,4.79-11,7-10.24,6.14-20.56,12.13-30.77,18.31-12.08,7.3-24.09,14.74-36.13,22.12Q64,292.24,46.33,303c-6.53,4-13.17,7.79-19.66,11.85-6.87,4.3-13.6,8.83-20.43,13.21a27.36,27.36,0,0,1-3.56,1.64Z" transform="translate(-0.71 -0.71)"/><path d="M261.81,34.3C257,29,252.45,24.07,248.05,19a2.79,2.79,0,0,1,0-2.71c4.43-4.86,9-9.59,13.65-14.46l14.65,16.51Zm11.48-16L262.63,6.43c-3.4,2.82-7,5.55-10.21,8.62-0.92.87-1.74,3.36-1.22,4,3.26,4.11,6.91,7.92,10.45,11.85Z" transform="translate(-0.71 -0.71)"/><path d="M273.29,18.33L261.65,30.92c-3.54-3.93-7.19-7.74-10.45-11.85-0.52-.65.29-3.15,1.22-4,3.25-3.07,6.81-5.8,10.21-8.62Z" transform="translate(-0.71 -0.71)" style="fill:#fff"/></svg>
